<svg width="2959" height="1714" viewBox="0 0 2959 1714" fill="none" xmlns="http://www.w3.org/2000/svg">
<path d="M704.589 1013.82C653.409 1044.64 616.641 1080.65 623.142 839.911M631.344 758.428C627.484 785.937 623.795 815.718 623.142 839.911M631.344 758.428C653.842 794.402 698.649 803.672 676.659 802.523C640.417 800.628 629.568 828.463 623.142 839.911M631.344 758.428C632.997 766.267 633.671 773.823 623.142 741.341C612.612 708.86 621.201 675.528 623.141 665.152C633.392 638.986 658.162 592.466 704.588 597.88C751.015 603.294 786.54 651.114 798.5 674.348L836.031 754.706L864.635 689.236L883.318 658.107L902.877 630.943C1013.29 514.55 1080.4 676.717 1042.21 741.341L994 819.5M737.87 998.736C814.09 969.638 816.901 912.24 665.452 790.839" stroke="#000234" stroke-width="25"/>
<circle cx="818" cy="1036" r="35" fill="#000346"/>
<path d="M845.317 1016.61C844.936 1016.34 844.62 1015.94 844.371 1015.4C844.122 1014.86 843.951 1014.27 843.857 1013.63C843.763 1012.99 843.759 1012.37 843.845 1011.79C843.93 1011.2 844.117 1010.72 844.405 1010.35C844.477 1010.26 844.585 1010.12 844.729 1009.94C844.909 1009.7 845.059 1009.56 845.178 1009.5C845.366 1010.5 845.734 1011.26 846.282 1011.8C846.866 1012.29 847.515 1012.79 848.231 1013.3C849.327 1014.08 850.413 1014.5 851.488 1014.55C852.552 1014.52 853.586 1014.28 854.591 1013.85C855.548 1013.38 856.44 1012.76 857.267 1011.98C858.177 1011.19 858.956 1010.38 859.604 1009.55C862.303 1006.08 864.309 1002.55 865.623 998.959C866.889 995.33 867.623 991.718 867.825 988.122C868.016 984.445 867.741 980.795 867 977.172C866.211 973.515 865.129 969.9 863.754 966.329C862.368 962.677 860.76 959.118 858.931 955.654C857.138 952.143 855.25 948.707 853.265 945.347L853.103 945.556L852.995 945.694C852.959 945.74 852.917 945.747 852.87 945.713C851.79 947.1 851.152 948.73 850.955 950.604C850.71 952.443 850.585 954.368 850.578 956.378C850.524 958.354 850.381 960.302 850.148 962.222C849.867 964.108 849.169 965.767 848.053 967.201C847.672 966.928 847.37 965.886 847.149 964.073C846.964 962.214 846.828 959.958 846.74 957.306C846.653 954.654 846.584 951.835 846.534 948.849C846.52 945.817 846.522 943.049 846.542 940.546C846.55 937.961 846.581 935.825 846.634 934.136C846.639 932.413 846.642 931.552 846.642 931.552C847.326 930.674 848.193 930.322 849.244 930.497C850.247 930.638 851.13 930.98 851.893 931.525C852.036 931.628 852.256 931.821 852.554 932.106C852.888 932.344 853.061 932.503 853.072 932.584C856.019 937.853 858.472 942.232 860.432 945.718C862.392 949.205 863.955 952.011 865.119 954.138C866.283 956.264 867.156 957.859 867.738 958.922C868.308 959.905 868.683 960.568 868.861 960.911C869.075 961.208 869.176 961.316 869.164 961.236C869.141 961.075 869.159 960.908 869.22 960.736C869.389 960.137 869.852 959.065 870.61 957.52C871.356 955.894 872.155 954.199 873.009 952.435C873.899 950.624 874.746 948.963 875.552 947.452C876.345 945.861 876.892 944.776 877.193 944.2L876.982 942.754C874.179 937.587 871.459 932.407 868.823 927.215C866.176 921.942 863.492 916.716 860.773 911.536C860.694 910.113 860.977 909.416 861.622 909.445C862.219 909.44 862.953 909.784 863.823 910.477C864.729 911.124 865.598 911.961 866.431 912.988C867.216 913.98 867.758 914.763 868.054 915.334L893.611 960.135C894.241 961.233 894.471 962.081 894.302 962.679C894.133 963.278 893.779 963.924 893.239 964.618C892.915 965.034 892.531 965.479 892.088 965.954C891.644 966.428 891.082 966.531 890.402 966.261C890.275 964.803 889.88 963.262 889.216 961.636C888.54 959.931 887.751 958.324 886.848 956.815C885.897 955.273 884.862 953.886 883.743 952.655C882.612 951.344 881.522 950.314 880.473 949.564C880.401 949.657 880.269 949.779 880.078 949.929C879.922 950.034 879.832 950.15 879.808 950.276C879.169 952.05 878.363 953.849 877.389 955.671C876.368 957.46 875.395 959.283 874.469 961.14C873.496 962.962 872.695 964.801 872.068 966.655C871.441 968.51 871.197 970.349 871.334 972.174C871.583 976.525 871.882 980.335 872.23 983.606C872.53 986.842 872.533 989.937 872.237 992.891C871.941 995.845 871.137 998.832 869.825 1001.85C868.513 1004.87 866.382 1008.28 863.431 1012.07C862.243 1013.6 860.961 1014.91 859.584 1016.01C858.254 1017.15 856.818 1017.99 855.275 1018.55C853.768 1019.05 852.184 1019.18 850.525 1018.93C848.865 1018.68 847.129 1017.91 845.317 1016.61ZM901.934 946.439C899.51 945.931 897.476 945.018 895.831 943.699C894.139 942.347 892.782 940.802 891.76 939.065C890.727 937.247 890.004 935.364 889.592 933.415C889.168 931.386 888.989 929.423 889.055 927.528C889.073 925.598 889.329 923.839 889.824 922.25C890.355 920.614 891.046 919.345 891.897 918.442C892.7 917.505 893.652 916.998 894.751 916.92C895.85 916.842 897.019 917.389 898.258 918.561C900.118 919.89 901.289 921.625 901.772 923.769C902.291 925.866 902.559 928 902.576 930.171C902.629 932.295 902.659 934.259 902.665 936.062C902.66 937.785 903.039 938.919 903.801 939.463C904.231 939.77 904.744 939.777 905.343 939.485C905.977 939.147 906.617 938.705 907.264 938.16C907.863 937.58 908.439 936.984 908.99 936.371C909.542 935.757 909.949 935.329 910.213 935.086C912.642 930.058 914.607 926.389 916.108 924.08C917.56 921.736 918.646 920.389 919.364 920.039C920.034 919.654 920.349 920.059 920.31 921.254C920.258 922.368 919.931 923.933 919.327 925.948C918.676 927.929 917.779 930.13 916.636 932.551C915.494 934.973 914.178 937.235 912.69 939.337C911.155 941.406 909.465 943.149 907.62 944.565C905.812 945.936 903.917 946.56 901.934 946.439ZM895.073 922.654C894.354 923.579 893.932 924.644 893.809 925.851C893.686 927.058 893.759 928.298 894.03 929.571C894.289 930.763 894.716 931.931 895.309 933.074C895.855 934.184 896.444 935.144 897.074 935.954C897.194 935.895 897.272 935.843 897.308 935.797L897.47 935.589C897.974 934.941 898.263 933.997 898.339 932.756C898.415 931.515 898.335 930.235 898.1 928.916C897.818 927.563 897.421 926.309 896.911 925.154C896.401 923.998 895.789 923.165 895.073 922.654ZM919.627 921.845C917.233 919.488 915.342 916.914 913.953 914.123C912.564 911.333 911.61 908.601 911.093 905.93C910.564 903.178 910.435 900.532 910.706 897.991C910.977 895.451 911.617 893.246 912.626 891.377C913.588 889.474 914.847 887.999 916.404 886.952C917.996 885.86 919.849 885.385 921.963 885.528C923.06 886.311 923.911 887.315 924.517 888.538C925.158 889.716 925.745 890.963 926.279 892.279C926.848 893.549 927.46 894.813 928.113 896.071C928.802 897.283 929.742 898.314 930.934 899.166C932.174 900.051 933.373 900.512 934.532 900.548C935.679 900.504 936.775 899.812 937.818 898.471C938.682 897.361 939.343 896.178 939.801 894.922C940.294 893.62 940.955 892.438 941.783 891.374C941.927 891.189 942.185 890.906 942.556 890.524C942.916 890.061 943.15 889.761 943.258 889.622C943.637 890.756 943.77 891.966 943.659 893.254C943.547 894.541 943.328 895.823 943.001 897.101C942.627 898.344 942.122 899.566 941.485 900.766C940.884 901.919 940.241 902.935 939.558 903.814C938.91 904.646 938.143 905.25 937.258 905.625C936.373 906 935.44 906.197 934.461 906.217C933.481 906.236 932.502 906.112 931.523 905.845C930.532 905.497 929.656 905.051 928.893 904.506C929.163 905.778 929.428 907.154 929.686 908.634C929.933 910.033 930.054 911.45 930.049 912.886C930.08 914.275 929.921 915.672 929.57 917.076C929.255 918.434 928.666 919.668 927.802 920.778C926.866 921.98 925.604 922.697 924.014 922.928C922.377 923.126 920.914 922.765 919.627 921.845ZM920.972 915.684C921.354 915.956 921.783 916.263 922.26 916.603C922.773 916.898 923.316 916.818 923.891 916.366C924.505 915.005 924.911 913.245 925.109 911.084C925.259 908.889 925.194 906.685 924.914 904.47C924.587 902.222 924.026 900.131 923.232 898.196C922.39 896.228 921.277 894.75 919.895 893.763C919.799 893.694 919.638 893.615 919.411 893.525C919.173 893.355 919.006 893.236 918.911 893.168C917.687 894.74 916.78 896.574 916.188 898.669C915.596 900.764 915.392 902.885 915.576 905.031C915.713 907.143 916.22 909.16 917.098 911.082C918.012 912.958 919.304 914.492 920.972 915.684ZM940.439 891.385C940.105 891.147 939.622 890.766 938.991 890.243C938.348 889.64 937.728 889.054 937.133 888.484C936.537 887.915 936.013 887.397 935.561 886.93C935.06 886.429 934.775 886.081 934.704 885.886L918.494 854.668C918.257 854.211 918.002 853.489 917.731 852.504C917.447 851.438 917.182 850.349 916.935 849.237C916.675 848.045 916.47 846.927 916.318 845.883C916.154 844.759 916.043 843.853 915.986 843.164C916.333 842.909 916.68 842.797 917.026 842.828C917.373 842.86 917.731 842.972 918.101 843.164C918.423 843.322 918.709 843.526 918.959 843.777C919.245 843.981 919.483 844.151 919.674 844.288C919.912 844.458 920.246 844.696 920.675 845.003C921.104 845.309 921.301 845.486 921.265 845.532C922.193 846.914 923.161 848.72 924.169 850.951C925.177 853.182 926.215 855.614 927.282 858.247C928.349 860.879 929.475 863.626 930.661 866.488C931.835 869.269 933.081 871.957 934.399 874.553C935.705 877.069 937.066 879.372 938.481 881.462C939.932 883.505 941.468 885.106 943.089 886.264C943.948 886.877 944.819 887.14 945.703 887.052C946.576 886.884 947.419 886.658 948.232 886.376C949.045 886.094 949.823 885.857 950.564 885.667C951.341 885.431 952.064 885.551 952.731 886.028C953.16 886.335 953.35 886.758 953.301 887.298C953.204 887.804 952.957 888.312 952.561 888.821C951.05 890.763 949.188 892.059 946.976 892.709C944.716 893.325 942.537 892.884 940.439 891.385ZM953.775 873.392C952.392 872.404 951.207 871.162 950.22 869.666C949.233 868.17 948.342 866.598 947.547 864.951C946.704 863.27 945.885 861.606 945.09 859.958C944.33 858.265 943.451 856.774 942.452 855.484C942.292 856.737 942.008 857.722 941.6 858.437C941.18 859.072 940.628 859.829 939.944 860.708C939.872 860.8 939.638 861.101 939.242 861.609C938.835 862.038 938.577 862.321 938.469 862.46C937.636 861.433 937.102 860.261 936.867 858.942C936.585 857.589 936.517 856.246 936.665 854.912C936.801 853.499 937.074 852.147 937.484 850.857C937.883 849.487 938.287 848.301 938.696 847.298C937.535 844.31 936.175 841.577 934.618 839.098C933.013 836.584 931.48 834.122 930.018 831.711C928.544 829.22 927.298 826.675 926.279 824.076C925.248 821.397 924.707 818.422 924.658 815.149L927.646 816.743L941.854 840.381C942.107 839.77 942.449 839.044 942.882 838.202C943.315 837.36 943.748 836.518 944.18 835.676C944.649 834.787 945.106 833.962 945.55 833.201C945.983 832.359 946.326 831.632 946.579 831.021C946.615 830.975 946.722 830.836 946.902 830.605C947.035 830.34 947.155 830.138 947.263 829.999C947.767 829.352 948.3 828.905 948.862 828.659C949.424 828.413 950.219 828.441 951.245 828.743C949.752 832.568 948.54 836.127 947.609 839.42C946.679 842.712 946.335 845.919 946.576 849.041C946.805 852.083 947.763 855.141 949.45 858.216C951.125 861.211 953.809 864.387 957.502 867.745C958.36 868.358 959.183 868.873 959.97 869.292C960.757 869.71 961.636 869.438 962.607 868.477C963.435 867.414 963.994 866.266 964.284 865.035C964.575 863.804 964.824 862.578 965.031 861.359C965.19 860.106 965.397 858.887 965.652 857.702C965.942 856.47 966.501 855.323 967.329 854.26C968.473 855.077 969.144 856.312 969.342 857.964C969.54 859.616 969.457 861.391 969.093 863.289C968.764 865.141 968.233 866.92 967.499 868.626C966.765 870.332 966.038 871.647 965.318 872.572C964.598 873.497 963.76 874.193 962.803 874.66C961.845 875.127 960.859 875.394 959.843 875.46C958.816 875.446 957.765 875.271 956.691 874.935C955.653 874.553 954.681 874.039 953.775 873.392ZM993.819 835.949C993.11 837.241 992.092 838.169 990.764 838.731C989.424 839.213 988.062 839.391 986.677 839.265C985.243 839.105 983.919 838.662 982.702 837.937C981.438 837.178 980.545 836.181 980.024 834.945C978.889 830.969 977.823 828.049 976.826 826.186C975.78 824.288 974.858 823.233 974.058 823.022C973.246 822.73 972.534 823.121 971.922 824.194C971.297 825.187 970.845 826.626 970.564 828.512C970.236 830.364 970.056 832.502 970.024 834.925C970.029 837.302 970.224 839.672 970.611 842.035C970.998 844.398 971.582 846.65 972.364 848.791C973.134 850.852 974.15 852.549 975.412 853.882C975.338 854.549 975.271 855.112 975.21 855.572C975.101 855.998 974.885 856.419 974.561 856.835C974.021 857.528 973.459 857.774 972.874 857.572C972.289 857.371 971.734 857.082 971.21 856.708C970.018 855.856 969.072 854.641 968.372 853.062C967.661 851.403 967.116 849.719 966.739 848.011C966.351 846.223 966.045 844.566 965.823 843.04C965.553 841.48 965.276 840.311 964.992 839.533C963.937 836.98 962.738 834.326 961.397 831.569C960.008 828.778 958.595 825.971 957.158 823.146C955.674 820.287 954.255 817.439 952.902 814.602C951.538 811.685 950.328 808.807 949.274 805.967C949.072 805.464 948.954 805.092 948.919 804.851C948.92 804.564 949.046 804.258 949.298 803.934C949.586 803.565 949.873 803.338 950.16 803.255C950.447 803.173 950.854 803.175 951.379 803.262C951.57 803.399 951.844 803.666 952.201 804.065C952.594 804.418 953.017 804.828 953.469 805.295C953.91 805.682 954.291 806.098 954.612 806.543C954.969 806.942 955.202 807.216 955.309 807.364C955.665 808.05 956.306 809.228 957.233 810.897C958.16 812.566 959.127 814.372 960.137 816.316C961.182 818.214 962.222 820.072 963.255 821.889C964.241 823.672 964.99 824.998 965.501 825.867C965.564 824.833 965.692 823.953 965.885 823.228C966.031 822.469 966.254 821.801 966.555 821.224C966.844 820.567 967.204 819.961 967.636 819.406C968.056 818.771 968.536 818.107 969.076 817.413C970.8 816.055 972.29 815.428 973.544 815.532C974.834 815.59 975.961 816.144 976.926 817.192C977.878 818.16 978.752 819.468 979.548 821.115C980.343 822.762 981.126 824.473 981.897 826.247C982.656 827.94 983.446 829.547 984.265 831.068C985.037 832.554 985.965 833.649 987.05 834.352C987.48 834.658 987.861 834.787 988.196 834.739C988.531 834.69 988.854 834.561 989.165 834.352C989.476 834.142 989.758 833.876 990.01 833.552C990.262 833.228 990.496 832.928 990.712 832.65C991.467 831.679 992.044 830.652 992.442 829.569C992.828 828.406 993.172 827.249 993.474 826.098C993.776 824.947 994.126 823.83 994.524 822.747C994.91 821.584 995.481 820.517 996.236 819.546C997.142 820.193 997.659 821.245 997.786 822.703C997.912 824.16 997.8 825.734 997.448 827.426C997.085 829.037 996.572 830.649 995.91 832.262C995.2 833.842 994.503 835.071 993.819 835.949Z" fill="#000234"/>
<path d="M775.161 978.873C779.479 987.086 769.918 1000.05 753.807 1007.82C737.696 1015.59 721.135 1015.23 716.818 1007.02C712.5 998.805 722.061 985.846 738.172 978.073C754.282 970.301 770.843 970.659 775.161 978.873Z" fill="#000234"/>
<ellipse cx="29.334" cy="18.8462" rx="29.334" ry="18.8462" transform="matrix(0.878276 -0.478154 0.510194 0.860059 653 1022.05)" fill="#000234"/>
<path d="M104.688 1074.47C104.688 1062.49 107.292 1049.99 112.5 1036.97C117.708 1023.43 122.396 1011.97 126.562 1002.59C130.208 995.302 135.938 984.104 143.75 969C151.562 953.375 160.417 935.927 170.312 916.656C180.208 897.385 190.625 877.073 201.562 855.719C213.021 834.365 223.698 814.052 233.594 794.781C243.49 775.51 252.344 758.323 260.156 743.219C268.49 727.594 274.479 716.135 278.125 708.844C278.646 708.323 279.688 706.5 281.25 703.375C283.333 700.25 285.417 697.125 287.5 694C290.104 690.875 292.448 688.01 294.531 685.406C296.615 682.281 297.917 680.198 298.438 679.156C298.958 678.115 298.698 677.073 297.656 676.031C296.615 674.99 296.094 673.948 296.094 672.906C273.698 675.51 250.26 678.896 225.781 683.062C201.823 687.229 177.865 692.177 153.906 697.906C130.469 703.115 107.812 709.365 85.9375 716.656C64.0625 723.427 44.2708 731.24 26.5625 740.094C20.8333 740.094 15.625 739.052 10.9375 736.969C6.25 734.885 3.90625 730.719 3.90625 724.469V722.125C3.90625 721.604 4.16667 720.823 4.6875 719.781C5.72917 717.177 7.29167 713.271 9.375 708.062C11.9792 702.333 13.8021 699.208 14.8438 698.688L85.9375 668.219L561.719 547.125C567.448 561.708 566.927 573.427 560.156 582.281C553.906 590.615 543.75 597.646 529.688 603.375C515.625 608.583 499.219 613.271 480.469 617.438C462.24 621.083 443.75 625.771 425 631.5C406.771 636.708 389.844 644 374.219 653.375C358.594 662.229 346.875 674.208 339.062 689.312C305.208 756.5 270.312 823.427 234.375 890.094C198.958 956.76 166.406 1024.73 136.719 1094C136.198 1094 135.156 1094 133.594 1094C132.552 1094.52 131.771 1094.78 131.25 1094.78C124.479 1094.78 118.229 1093.22 112.5 1090.09C107.292 1086.97 104.688 1081.76 104.688 1074.47Z" fill="#000234"/>
<path d="M1027.5 1276.84C1027.5 1247.16 1032.71 1220.59 1043.12 1197.16C1053.02 1173.72 1066.3 1151.84 1082.97 1131.53C1099.64 1111.74 1118.65 1093.25 1140 1076.06C1161.35 1059.4 1183.23 1042.99 1205.62 1026.84C1228.02 1011.22 1249.9 995.333 1271.25 979.188C1292.6 963.042 1311.61 945.854 1328.28 927.625C1344.95 909.396 1358.23 889.604 1368.12 868.25C1378.54 846.896 1383.75 823.198 1383.75 797.156C1383.75 796.115 1383.75 793.771 1383.75 790.125C1383.75 785.958 1383.49 783.354 1382.97 782.312C1379.32 785.438 1372.29 790.125 1361.88 796.375C1351.46 802.104 1340.26 808.354 1328.28 815.125C1316.82 821.375 1305.62 827.104 1294.69 832.312C1283.75 837.521 1275.94 840.906 1271.25 842.469C1270.73 842.469 1268.65 842.729 1265 843.25C1261.88 843.771 1257.97 844.292 1253.28 844.812C1249.11 845.333 1244.95 845.854 1240.78 846.375C1236.61 846.375 1233.23 846.375 1230.62 846.375C1207.19 842.208 1191.56 834.135 1183.75 822.156C1175.94 809.656 1173.85 795.073 1177.5 778.406C1181.15 761.74 1189.22 744.031 1201.72 725.281C1214.74 706.01 1230.1 687.781 1247.81 670.594C1266.04 652.885 1285.57 637.26 1306.41 623.719C1327.76 609.656 1348.33 599.76 1368.12 594.031C1388.44 587.781 1406.93 586.479 1423.59 590.125C1440.78 593.25 1454.06 603.406 1463.44 620.594C1466.56 642.469 1466.56 663.042 1463.44 682.312C1460.31 701.062 1456.15 719.552 1450.94 737.781C1445.73 756.01 1440.52 774.5 1435.31 793.25C1430.1 811.479 1426.98 831.531 1425.94 853.406H1432.97C1436.09 850.281 1441.3 844.812 1448.59 837C1456.41 829.188 1464.48 821.115 1472.81 812.781C1481.67 803.927 1490 795.854 1497.81 788.562C1505.62 780.75 1511.09 775.281 1514.22 772.156C1515.78 770.594 1518.91 768.51 1523.59 765.906C1528.8 763.302 1532.45 762 1534.53 762V764.344V765.906C1534.53 766.427 1534.79 766.688 1535.31 766.688C1535.31 785.438 1529.84 802.625 1518.91 818.25C1508.49 833.875 1495.73 848.458 1480.62 862C1465.52 875.542 1449.9 888.042 1433.75 899.5C1417.6 911.479 1404.06 922.938 1393.12 933.875C1384.27 952.104 1374.64 974.76 1364.22 1001.84C1353.8 1029.45 1342.34 1058.61 1329.84 1089.34C1317.34 1120.59 1303.28 1152.1 1287.66 1183.88C1272.55 1216.17 1255.36 1245.85 1236.09 1272.94C1217.34 1300.02 1196.51 1323.2 1173.59 1342.47C1150.68 1362.26 1125.16 1375.02 1097.03 1380.75C1083.49 1380.75 1072.29 1377.36 1063.44 1370.59C1054.06 1363.82 1046.77 1355.23 1041.56 1344.81C1036.35 1334.92 1032.71 1323.72 1030.62 1311.22C1028.54 1299.24 1027.5 1287.78 1027.5 1276.84ZM1068.91 1319.03C1073.07 1328.93 1078.02 1334.92 1083.75 1337C1089.48 1339.08 1095.99 1340.12 1103.28 1340.12C1116.82 1340.12 1131.67 1333.09 1147.81 1319.03C1163.96 1304.97 1180.1 1286.74 1196.25 1264.34C1212.92 1242.47 1228.8 1217.99 1243.91 1190.91C1259.01 1163.82 1272.29 1137.52 1283.75 1112C1295.73 1086.48 1305.1 1063.04 1311.88 1041.69C1319.17 1020.85 1322.81 1005.23 1322.81 994.812C1322.81 993.771 1322.55 991.948 1322.03 989.344C1322.03 987.26 1322.03 985.698 1322.03 984.656C1320.47 985.698 1316.82 987.26 1311.09 989.344C1305.89 991.948 1302.76 993.771 1301.72 994.812C1279.84 1010.96 1255.1 1028.67 1227.5 1047.94C1200.42 1067.73 1175.16 1089.34 1151.72 1112.78C1127.76 1136.22 1107.71 1161.48 1091.56 1188.56C1075.42 1216.17 1067.34 1245.85 1067.34 1277.62C1067.34 1279.19 1067.34 1282.05 1067.34 1286.22C1067.34 1290.39 1067.6 1294.55 1068.12 1298.72C1068.12 1302.89 1068.39 1306.79 1068.91 1310.44C1068.91 1314.6 1068.91 1317.47 1068.91 1319.03ZM1413.44 629.969C1405.1 629.969 1394.17 632.833 1380.62 638.562C1367.08 643.771 1352.5 651.062 1336.88 660.438C1321.77 669.812 1306.41 680.49 1290.78 692.469C1275.16 704.448 1260.83 716.948 1247.81 729.969C1235.31 742.99 1225.16 756.01 1217.34 769.031C1209.53 782.052 1205.62 794.031 1205.62 804.969C1216.56 804.969 1229.84 802.885 1245.47 798.719C1261.09 794.031 1277.24 788.042 1293.91 780.75C1311.09 772.938 1328.02 764.083 1344.69 754.188C1361.35 743.771 1376.2 732.833 1389.22 721.375C1402.76 709.917 1413.7 698.198 1422.03 686.219C1430.36 674.24 1434.53 662.521 1434.53 651.062C1434.53 637 1427.5 629.969 1413.44 629.969ZM1529.84 821.375C1520.99 801.583 1517.08 782.312 1518.12 763.562C1519.17 744.292 1523.33 726.323 1530.62 709.656C1538.44 692.469 1548.33 677.104 1560.31 663.562C1572.81 649.5 1586.09 637.521 1600.16 627.625C1614.22 617.208 1628.28 609.396 1642.34 604.188C1656.93 598.979 1669.69 596.896 1680.62 597.938C1691.56 598.458 1700.16 602.365 1706.41 609.656C1712.66 616.948 1714.74 628.146 1712.66 643.25C1712.66 663.562 1706.15 681.271 1693.12 696.375C1680.62 711.479 1666.56 725.021 1650.94 737C1635.83 748.979 1621.77 759.917 1608.75 769.812C1596.25 779.188 1590 788.042 1590 796.375C1590 801.062 1592.6 804.708 1597.81 807.312C1603.54 809.917 1610.05 812 1617.34 813.562C1624.64 814.604 1631.93 815.385 1639.22 815.906C1646.51 816.427 1651.72 816.948 1654.84 817.469C1703.8 807.052 1740.52 800.802 1765 798.719C1789.48 796.115 1804.84 796.375 1811.09 799.5C1817.34 802.104 1816.04 806.531 1807.19 812.781C1798.85 818.51 1785.83 824.76 1768.12 831.531C1750.42 837.781 1729.84 843.51 1706.41 848.719C1682.97 853.927 1659.79 857.052 1636.88 858.094C1613.96 858.615 1592.6 856.271 1572.81 851.062C1553.54 845.854 1539.22 835.958 1529.84 821.375ZM1666.56 643.25C1656.15 643.25 1646.25 646.115 1636.88 651.844C1627.5 657.573 1618.91 664.865 1611.09 673.719C1603.8 682.052 1597.55 691.427 1592.34 701.844C1587.14 711.74 1583.23 721.115 1580.62 729.969C1581.67 730.49 1582.45 730.75 1582.97 730.75H1585.31C1592.6 730.75 1600.94 727.625 1610.31 721.375C1619.69 715.125 1628.54 707.573 1636.88 698.719C1645.21 689.344 1652.24 679.708 1657.97 669.812C1663.7 659.917 1666.56 651.062 1666.56 643.25ZM1790 786.219C1790 771.115 1792.86 756.01 1798.59 740.906C1804.32 725.802 1811.09 710.958 1818.91 696.375C1826.72 681.271 1834.53 666.427 1842.34 651.844C1850.68 637.26 1856.93 622.938 1861.09 608.875C1851.2 614.604 1842.6 617.99 1835.31 619.031C1828.54 619.552 1820.21 619.812 1810.31 619.812C1809.27 619.812 1805.89 619.812 1800.16 619.812C1794.95 619.292 1791.56 619.031 1790 619.031C1793.12 607.573 1798.85 597.417 1807.19 588.562C1815.52 579.188 1824.9 571.375 1835.31 565.125C1846.25 558.354 1857.45 552.885 1868.91 548.719C1880.89 544.031 1891.56 540.385 1900.94 537.781C1916.56 513.302 1929.32 488.823 1939.22 464.344C1949.11 439.344 1959.01 415.125 1968.91 391.688C1979.32 367.729 1991.3 345.073 2004.84 323.719C2018.91 301.844 2037.66 281.792 2061.09 263.562L2065 293.25L1967.34 522.156C1973.07 520.594 1980.1 519.031 1988.44 517.469C1996.77 515.906 2005.1 514.344 2013.44 512.781C2022.29 511.219 2030.62 509.917 2038.44 508.875C2046.77 507.312 2053.8 505.75 2059.53 504.188C2060.05 504.188 2061.61 504.188 2064.22 504.188C2066.82 503.667 2068.91 503.406 2070.47 503.406C2077.76 503.406 2083.75 504.708 2088.44 507.312C2093.12 509.917 2097.03 515.646 2100.16 524.5C2064.74 534.917 2032.71 545.854 2004.06 557.312C1975.42 568.771 1950.42 583.875 1929.06 602.625C1908.23 620.854 1891.04 644.292 1877.5 672.938C1864.48 701.062 1855.36 737.26 1850.16 781.531C1850.16 790.906 1850.68 799.5 1851.72 807.312C1852.76 815.125 1859.27 819.812 1871.25 821.375C1883.23 821.375 1894.43 819.031 1904.84 814.344C1915.26 809.656 1925.42 804.708 1935.31 799.5C1945.21 793.771 1955.1 788.562 1965 783.875C1975.42 779.188 1986.61 776.844 1998.59 776.844C1998.59 789.344 1993.12 800.802 1982.19 811.219C1971.25 821.635 1957.97 830.75 1942.34 838.562C1927.24 846.375 1911.61 852.365 1895.47 856.531C1879.32 860.698 1866.04 862.781 1855.62 862.781C1845.21 862.781 1835.83 860.698 1827.5 856.531C1819.17 852.365 1812.14 846.896 1806.41 840.125C1801.2 832.833 1797.03 824.5 1793.91 815.125C1791.3 805.75 1790 796.115 1790 786.219Z" fill="#000234"/>
<path d="M2237.56 862.781C2224.54 864.865 2212.56 862.781 2201.62 856.531C2191.21 849.76 2182.88 841.167 2176.62 830.75C2170.38 819.812 2166.73 808.094 2165.69 795.594C2164.65 782.573 2167.25 770.854 2173.5 760.438C2196.42 730.75 2212.04 707.312 2220.38 690.125C2228.71 672.417 2231.57 660.177 2228.97 653.406C2226.89 646.115 2220.38 643.25 2209.44 644.812C2199.02 645.854 2186.26 650.542 2171.16 658.875C2156.05 666.688 2139.65 677.104 2121.94 690.125C2104.75 703.146 2088.6 717.469 2073.5 733.094C2058.4 748.719 2045.11 765.125 2033.66 782.312C2022.72 798.979 2015.69 815.385 2012.56 831.531C2007.35 834.656 2002.93 837.26 1999.28 839.344C1995.64 840.906 1991.47 841.688 1986.78 841.688C1978.97 841.688 1974.28 839.083 1972.72 833.875C1971.16 828.667 1970.38 823.198 1970.38 817.469C1970.38 804.448 1974.28 791.167 1982.09 777.625C1990.43 763.562 1999.8 750.542 2010.22 738.562C2021.16 726.062 2031.57 714.865 2041.47 704.969C2051.36 694.552 2058.4 686.219 2062.56 679.969C2075.58 658.615 2088.6 635.698 2101.62 611.219C2114.65 586.219 2127.67 560.958 2140.69 535.438C2153.71 509.396 2166.99 483.875 2180.53 458.875C2194.59 433.354 2209.18 409.135 2224.28 386.219C2226.89 382.052 2228.97 379.188 2230.53 377.625C2232.61 376.062 2235.48 375.281 2239.12 375.281C2243.29 375.281 2246.42 376.062 2248.5 377.625C2250.58 379.188 2252.67 382.052 2254.75 386.219C2254.75 388.302 2254.23 391.688 2253.19 396.375C2252.67 401.062 2251.89 406.271 2250.84 412C2250.32 417.208 2249.28 422.156 2247.72 426.844C2246.68 431.531 2245.9 434.656 2245.38 436.219C2242.25 442.469 2237.04 453.406 2229.75 469.031C2222.46 484.656 2214.39 501.323 2205.53 519.031C2197.2 536.74 2189.12 554.188 2181.31 571.375C2173.5 588.042 2167.77 600.542 2164.12 608.875C2171.94 603.667 2178.97 599.76 2185.22 597.156C2191.47 594.031 2197.46 591.948 2203.19 590.906C2209.44 589.344 2215.69 588.562 2221.94 588.562C2228.71 588.042 2236 587.781 2243.81 587.781C2262.56 592.469 2274.8 599.5 2280.53 608.875C2286.78 618.25 2288.6 629.188 2286 641.688C2283.92 653.667 2278.97 666.948 2271.16 681.531C2263.34 696.115 2255.01 710.958 2246.16 726.062C2237.82 740.646 2230.27 754.969 2223.5 769.031C2216.73 782.573 2213.6 795.073 2214.12 806.531C2214.12 811.219 2215.17 814.604 2217.25 816.688C2219.33 818.771 2221.94 820.333 2225.06 821.375C2228.19 822.417 2231.57 822.938 2235.22 822.938C2238.86 822.938 2242.25 822.938 2245.38 822.938C2256.31 822.938 2266.73 821.375 2276.62 818.25C2287.04 814.604 2297.2 810.698 2307.09 806.531C2316.99 802.365 2326.89 798.719 2336.78 795.594C2347.2 791.948 2357.88 790.125 2368.81 790.125C2368.81 800.021 2363.86 809.396 2353.97 818.25C2344.07 827.104 2332.09 834.917 2318.03 841.688C2304.49 847.938 2290.17 853.146 2275.06 857.312C2259.96 860.958 2247.46 862.781 2237.56 862.781ZM2343.03 821.375C2334.18 801.583 2330.27 782.312 2331.31 763.562C2332.35 744.292 2336.52 726.323 2343.81 709.656C2351.62 692.469 2361.52 677.104 2373.5 663.562C2386 649.5 2399.28 637.521 2413.34 627.625C2427.41 617.208 2441.47 609.396 2455.53 604.188C2470.11 598.979 2482.88 596.896 2493.81 597.938C2504.75 598.458 2513.34 602.365 2519.59 609.656C2525.84 616.948 2527.93 628.146 2525.84 643.25C2525.84 663.562 2519.33 681.271 2506.31 696.375C2493.81 711.479 2479.75 725.021 2464.12 737C2449.02 748.979 2434.96 759.917 2421.94 769.812C2409.44 779.188 2403.19 788.042 2403.19 796.375C2403.19 801.062 2405.79 804.708 2411 807.312C2416.73 809.917 2423.24 812 2430.53 813.562C2437.82 814.604 2445.11 815.385 2452.41 815.906C2459.7 816.427 2464.91 816.948 2468.03 817.469C2516.99 807.052 2553.71 800.802 2578.19 798.719C2602.67 796.115 2618.03 796.375 2624.28 799.5C2630.53 802.104 2629.23 806.531 2620.38 812.781C2612.04 818.51 2599.02 824.76 2581.31 831.531C2563.6 837.781 2543.03 843.51 2519.59 848.719C2496.16 853.927 2472.98 857.052 2450.06 858.094C2427.15 858.615 2405.79 856.271 2386 851.062C2366.73 845.854 2352.41 835.958 2343.03 821.375ZM2479.75 643.25C2469.33 643.25 2459.44 646.115 2450.06 651.844C2440.69 657.573 2432.09 664.865 2424.28 673.719C2416.99 682.052 2410.74 691.427 2405.53 701.844C2400.32 711.74 2396.42 721.115 2393.81 729.969C2394.85 730.49 2395.64 730.75 2396.16 730.75H2398.5C2405.79 730.75 2414.12 727.625 2423.5 721.375C2432.88 715.125 2441.73 707.573 2450.06 698.719C2458.4 689.344 2465.43 679.708 2471.16 669.812C2476.89 659.917 2479.75 651.062 2479.75 643.25ZM2779.75 801.844C2779.75 786.219 2782.88 771.896 2789.12 758.875C2795.9 745.333 2803.19 732.573 2811 720.594C2818.81 708.615 2825.84 696.635 2832.09 684.656C2838.86 672.677 2842.25 659.917 2842.25 646.375C2842.25 643.25 2841.99 639.604 2841.47 635.438C2841.47 630.75 2840.95 626.323 2839.91 622.156C2839.39 617.99 2837.82 614.604 2835.22 612C2833.14 608.875 2830.27 607.312 2826.62 607.312C2826.1 607.312 2825.06 607.573 2823.5 608.094C2822.46 608.094 2821.94 608.354 2821.94 608.875C2814.65 618.771 2805.79 629.969 2795.38 642.469C2785.48 654.448 2774.8 666.427 2763.34 678.406C2751.89 690.385 2740.69 701.844 2729.75 712.781C2718.81 723.719 2708.92 732.833 2700.06 740.125C2693.81 745.854 2685.22 753.667 2674.28 763.562C2663.86 773.458 2653.19 783.354 2642.25 793.25C2631.83 802.625 2622.46 810.958 2614.12 818.25C2606.31 825.542 2601.89 829.188 2600.84 829.188L2564.91 798.719C2569.59 798.719 2574.28 797.677 2578.97 795.594C2583.14 793.51 2587.3 791.167 2591.47 788.562C2622.72 767.729 2650.84 743.771 2675.84 716.688C2701.36 689.604 2726.36 660.438 2750.84 629.188C2751.89 627.625 2754.49 623.198 2758.66 615.906C2763.34 608.094 2768.29 599.5 2773.5 590.125C2778.71 580.229 2783.92 570.594 2789.12 561.219C2794.33 551.323 2798.24 543.51 2800.84 537.781C2803.97 531.01 2805.79 525.542 2806.31 521.375C2807.35 517.208 2808.14 514.083 2808.66 512C2809.7 509.396 2811.26 507.573 2813.34 506.531C2815.43 505.49 2819.85 504.969 2826.62 504.969C2827.67 504.969 2830.01 505.229 2833.66 505.75C2837.82 506.271 2840.43 506.792 2841.47 507.312C2848.24 521.375 2854.23 533.875 2859.44 544.812C2864.65 555.75 2869.07 566.167 2872.72 576.062C2876.36 585.438 2878.97 595.073 2880.53 604.969C2882.61 614.865 2883.66 625.802 2883.66 637.781C2876.89 654.969 2869.33 672.677 2861 690.906C2852.67 708.615 2845.64 725.542 2839.91 741.688C2834.18 757.833 2830.53 772.417 2828.97 785.438C2827.93 798.458 2830.79 808.875 2837.56 816.688C2844.85 823.979 2856.83 827.885 2873.5 828.406C2890.69 828.927 2914.91 824.5 2946.16 815.125C2954.49 819.292 2955.27 824.5 2948.5 830.75C2941.73 836.479 2931.31 841.948 2917.25 847.156C2903.71 852.365 2888.6 856.792 2871.94 860.438C2855.79 863.562 2842.25 864.344 2831.31 862.781C2821.42 862.781 2813.08 861.219 2806.31 858.094C2800.06 854.448 2794.85 849.76 2790.69 844.031C2787.04 838.302 2784.18 831.792 2782.09 824.5C2780.53 817.208 2779.75 809.656 2779.75 801.844Z" fill="#000234"/>
</svg>
