<svg width="467" height="493" viewBox="0 0 467 493" fill="none" xmlns="http://www.w3.org/2000/svg">
<path d="M99.5889 436.824C48.4087 467.638 11.6409 503.649 18.1415 262.911M26.3438 181.428C22.4837 208.937 18.7948 238.718 18.1415 262.911M26.3438 181.428C48.8421 217.402 93.6489 226.672 71.659 225.523C35.417 223.628 24.568 251.463 18.1415 262.911M26.3438 181.428C27.9971 189.267 28.6714 196.823 18.1418 164.341C7.61223 131.86 16.2007 98.5276 18.1414 88.1515C28.3923 61.9856 53.1616 15.4664 99.5884 20.8801C146.015 26.2937 181.54 74.1142 193.5 97.3478L231.031 177.706L259.635 112.236L278.318 81.1074L297.877 53.9432C408.287 -62.4503 475.401 99.7166 437.208 164.341L389 242.5M132.87 421.736C209.09 392.638 211.901 335.24 60.4516 213.839" stroke="#417D75" stroke-width="25"/>
<path d="M240.317 439.614C239.936 439.342 239.62 438.937 239.371 438.399C239.122 437.861 238.951 437.271 238.857 436.629C238.763 435.987 238.759 435.372 238.845 434.786C238.93 434.199 239.117 433.721 239.405 433.351C239.477 433.259 239.585 433.12 239.729 432.935C239.909 432.704 240.059 432.559 240.178 432.501C240.366 433.498 240.734 434.265 241.282 434.8C241.866 435.289 242.515 435.789 243.231 436.3C244.327 437.083 245.413 437.499 246.488 437.547C247.552 437.515 248.586 437.283 249.591 436.849C250.548 436.382 251.44 435.76 252.267 434.984C253.177 434.195 253.956 433.385 254.604 432.552C257.303 429.084 259.309 425.553 260.623 421.959C261.889 418.33 262.623 414.718 262.825 411.122C263.016 407.445 262.741 403.795 262 400.172C261.211 396.515 260.129 392.9 258.754 389.329C257.368 385.677 255.76 382.118 253.931 378.654C252.138 375.143 250.25 371.707 248.265 368.347L248.103 368.556L247.995 368.694C247.959 368.74 247.917 368.747 247.87 368.713C246.79 370.1 246.152 371.73 245.955 373.604C245.71 375.443 245.585 377.368 245.578 379.378C245.524 381.354 245.381 383.302 245.148 385.222C244.867 387.108 244.169 388.767 243.053 390.201C242.672 389.928 242.37 388.886 242.149 387.073C241.964 385.214 241.828 382.958 241.74 380.306C241.653 377.654 241.584 374.835 241.534 371.849C241.52 368.817 241.522 366.049 241.542 363.546C241.55 360.961 241.581 358.825 241.634 357.136C241.639 355.413 241.642 354.552 241.642 354.552C242.326 353.674 243.193 353.322 244.244 353.497C245.247 353.638 246.13 353.98 246.893 354.525C247.036 354.628 247.256 354.821 247.554 355.106C247.888 355.344 248.061 355.503 248.072 355.584C251.019 360.853 253.472 365.232 255.432 368.718C257.392 372.205 258.955 375.011 260.119 377.138C261.283 379.264 262.156 380.859 262.738 381.922C263.308 382.905 263.683 383.568 263.861 383.911C264.075 384.208 264.176 384.316 264.164 384.236C264.141 384.075 264.159 383.908 264.22 383.736C264.389 383.137 264.852 382.065 265.61 380.52C266.356 378.894 267.155 377.199 268.009 375.435C268.899 373.624 269.746 371.963 270.552 370.452C271.345 368.861 271.892 367.776 272.193 367.2L271.982 365.754C269.179 360.587 266.459 355.407 263.823 350.215C261.176 344.942 258.492 339.716 255.773 334.536C255.694 333.113 255.977 332.416 256.622 332.445C257.219 332.44 257.953 332.784 258.823 333.477C259.729 334.124 260.598 334.961 261.431 335.988C262.216 336.98 262.758 337.763 263.054 338.334L288.611 383.135C289.241 384.233 289.471 385.081 289.302 385.679C289.133 386.278 288.779 386.924 288.239 387.618C287.915 388.034 287.531 388.479 287.088 388.954C286.644 389.428 286.082 389.531 285.402 389.261C285.275 387.803 284.88 386.262 284.216 384.636C283.54 382.931 282.751 381.324 281.848 379.815C280.897 378.273 279.862 376.886 278.743 375.655C277.612 374.344 276.522 373.314 275.473 372.564C275.401 372.657 275.269 372.779 275.078 372.929C274.922 373.034 274.832 373.15 274.808 373.276C274.169 375.05 273.363 376.849 272.389 378.671C271.368 380.46 270.395 382.283 269.469 384.14C268.496 385.962 267.695 387.801 267.068 389.655C266.441 391.51 266.197 393.349 266.334 395.174C266.583 399.525 266.882 403.335 267.23 406.606C267.53 409.842 267.533 412.937 267.237 415.891C266.941 418.845 266.137 421.832 264.825 424.852C263.513 427.872 261.382 431.278 258.431 435.07C257.243 436.596 255.961 437.91 254.584 439.013C253.254 440.149 251.818 440.994 250.275 441.547C248.768 442.053 247.184 442.181 245.525 441.931C243.865 441.681 242.129 440.908 240.317 439.614ZM296.934 369.439C294.51 368.931 292.476 368.018 290.831 366.699C289.139 365.347 287.782 363.802 286.76 362.065C285.727 360.247 285.004 358.364 284.592 356.415C284.168 354.386 283.989 352.423 284.055 350.528C284.073 348.598 284.329 346.839 284.824 345.25C285.355 343.614 286.046 342.345 286.897 341.442C287.7 340.505 288.652 339.998 289.751 339.92C290.85 339.842 292.019 340.389 293.258 341.561C295.118 342.89 296.289 344.625 296.772 346.769C297.291 348.866 297.559 351 297.576 353.171C297.629 355.295 297.659 357.259 297.665 359.062C297.66 360.785 298.039 361.919 298.801 362.463C299.231 362.77 299.744 362.777 300.343 362.485C300.977 362.147 301.617 361.705 302.264 361.16C302.863 360.58 303.439 359.984 303.99 359.371C304.542 358.757 304.949 358.329 305.213 358.086C307.642 353.058 309.607 349.389 311.108 347.08C312.56 344.736 313.646 343.389 314.364 343.039C315.034 342.654 315.349 343.059 315.31 344.254C315.258 345.368 314.931 346.933 314.327 348.948C313.676 350.929 312.779 353.13 311.636 355.551C310.494 357.973 309.178 360.235 307.69 362.337C306.155 364.406 304.465 366.149 302.62 367.565C300.812 368.936 298.917 369.56 296.934 369.439ZM290.073 345.654C289.354 346.579 288.932 347.644 288.809 348.851C288.686 350.058 288.759 351.298 289.03 352.571C289.289 353.763 289.716 354.931 290.309 356.074C290.855 357.184 291.444 358.144 292.074 358.954C292.194 358.895 292.272 358.843 292.308 358.797L292.47 358.589C292.974 357.941 293.263 356.997 293.339 355.756C293.415 354.515 293.335 353.235 293.1 351.916C292.818 350.563 292.421 349.309 291.911 348.154C291.401 346.998 290.789 346.165 290.073 345.654ZM314.627 344.845C312.233 342.488 310.342 339.914 308.953 337.123C307.564 334.333 306.61 331.601 306.093 328.93C305.564 326.178 305.435 323.532 305.706 320.991C305.977 318.451 306.617 316.246 307.626 314.377C308.588 312.474 309.847 310.999 311.404 309.952C312.996 308.86 314.849 308.385 316.963 308.528C318.06 309.311 318.911 310.315 319.517 311.538C320.158 312.716 320.745 313.963 321.279 315.279C321.848 316.549 322.46 317.813 323.113 319.071C323.802 320.283 324.742 321.314 325.934 322.166C327.174 323.051 328.373 323.512 329.532 323.548C330.679 323.504 331.775 322.812 332.818 321.471C333.682 320.361 334.343 319.178 334.801 317.922C335.294 316.62 335.955 315.438 336.783 314.374C336.927 314.189 337.185 313.906 337.556 313.524C337.916 313.061 338.15 312.761 338.258 312.622C338.637 313.756 338.77 314.966 338.659 316.254C338.547 317.541 338.328 318.823 338.001 320.101C337.627 321.344 337.122 322.566 336.485 323.766C335.884 324.919 335.241 325.935 334.558 326.814C333.91 327.646 333.143 328.25 332.258 328.625C331.373 329 330.44 329.197 329.461 329.217C328.481 329.236 327.502 329.112 326.523 328.845C325.532 328.497 324.656 328.051 323.893 327.506C324.163 328.778 324.428 330.154 324.686 331.634C324.933 333.033 325.054 334.45 325.049 335.886C325.08 337.275 324.921 338.672 324.57 340.076C324.255 341.434 323.666 342.668 322.802 343.778C321.866 344.98 320.604 345.697 319.014 345.928C317.377 346.126 315.914 345.765 314.627 344.845ZM315.972 338.684C316.354 338.956 316.783 339.263 317.26 339.603C317.773 339.898 318.316 339.818 318.891 339.366C319.505 338.005 319.911 336.245 320.109 334.084C320.259 331.889 320.194 329.685 319.914 327.47C319.587 325.222 319.026 323.131 318.232 321.196C317.39 319.228 316.277 317.75 314.895 316.763C314.799 316.694 314.638 316.615 314.411 316.525C314.173 316.355 314.006 316.236 313.911 316.168C312.687 317.74 311.78 319.574 311.188 321.669C310.596 323.764 310.392 325.885 310.576 328.031C310.713 330.143 311.22 332.16 312.098 334.082C313.012 335.958 314.304 337.492 315.972 338.684ZM335.439 314.385C335.105 314.147 334.622 313.766 333.991 313.243C333.348 312.64 332.728 312.054 332.133 311.484C331.537 310.915 331.013 310.397 330.561 309.93C330.06 309.429 329.775 309.081 329.704 308.886L313.494 277.668C313.257 277.211 313.002 276.489 312.731 275.504C312.447 274.438 312.182 273.349 311.935 272.237C311.675 271.045 311.47 269.927 311.318 268.883C311.154 267.759 311.043 266.853 310.986 266.164C311.333 265.909 311.68 265.797 312.026 265.828C312.373 265.86 312.731 265.972 313.101 266.164C313.423 266.322 313.709 266.526 313.959 266.777C314.245 266.981 314.483 267.151 314.674 267.288C314.912 267.458 315.246 267.696 315.675 268.003C316.104 268.309 316.301 268.486 316.265 268.532C317.193 269.914 318.161 271.72 319.169 273.951C320.177 276.182 321.215 278.614 322.282 281.247C323.349 283.879 324.475 286.626 325.661 289.488C326.835 292.269 328.081 294.957 329.399 297.553C330.705 300.069 332.066 302.372 333.481 304.462C334.932 306.505 336.468 308.106 338.089 309.264C338.948 309.877 339.819 310.14 340.703 310.052C341.576 309.884 342.419 309.658 343.232 309.376C344.045 309.094 344.823 308.857 345.564 308.667C346.341 308.431 347.064 308.551 347.731 309.028C348.16 309.335 348.35 309.758 348.301 310.298C348.204 310.804 347.957 311.312 347.561 311.821C346.05 313.763 344.188 315.059 341.976 315.709C339.716 316.325 337.537 315.884 335.439 314.385ZM348.775 296.392C347.392 295.404 346.207 294.162 345.22 292.666C344.233 291.17 343.342 289.598 342.547 287.951C341.704 286.27 340.885 284.606 340.09 282.958C339.33 281.265 338.451 279.774 337.452 278.484C337.292 279.737 337.008 280.722 336.6 281.437C336.18 282.072 335.628 282.829 334.944 283.708C334.872 283.8 334.638 284.101 334.242 284.609C333.835 285.038 333.577 285.321 333.469 285.46C332.636 284.433 332.102 283.261 331.867 281.942C331.585 280.589 331.517 279.246 331.665 277.912C331.801 276.499 332.074 275.147 332.484 273.857C332.883 272.487 333.287 271.301 333.696 270.298C332.535 267.31 331.175 264.577 329.618 262.098C328.013 259.584 326.48 257.122 325.018 254.711C323.544 252.22 322.298 249.675 321.279 247.076C320.248 244.397 319.707 241.422 319.658 238.149L322.646 239.743L336.854 263.381C337.107 262.77 337.449 262.044 337.882 261.202C338.315 260.36 338.748 259.518 339.18 258.676C339.649 257.787 340.106 256.962 340.55 256.201C340.983 255.359 341.326 254.632 341.579 254.021C341.615 253.975 341.722 253.836 341.902 253.605C342.035 253.34 342.155 253.138 342.263 252.999C342.767 252.352 343.3 251.905 343.862 251.659C344.424 251.413 345.219 251.441 346.245 251.743C344.752 255.568 343.54 259.127 342.609 262.42C341.679 265.712 341.335 268.919 341.576 272.041C341.805 275.083 342.763 278.141 344.45 281.216C346.125 284.211 348.809 287.387 352.502 290.745C353.36 291.358 354.183 291.873 354.97 292.292C355.757 292.71 356.636 292.438 357.607 291.477C358.435 290.414 358.994 289.266 359.284 288.035C359.575 286.804 359.824 285.578 360.031 284.359C360.19 283.106 360.397 281.887 360.652 280.702C360.942 279.47 361.501 278.323 362.329 277.26C363.473 278.077 364.144 279.312 364.342 280.964C364.54 282.616 364.457 284.391 364.093 286.289C363.764 288.141 363.233 289.92 362.499 291.626C361.765 293.332 361.038 294.647 360.318 295.572C359.598 296.497 358.76 297.193 357.803 297.66C356.845 298.127 355.859 298.394 354.843 298.46C353.816 298.446 352.765 298.271 351.691 297.935C350.653 297.553 349.681 297.039 348.775 296.392ZM388.819 258.949C388.11 260.241 387.092 261.169 385.764 261.731C384.424 262.213 383.062 262.391 381.677 262.265C380.243 262.105 378.919 261.662 377.702 260.937C376.438 260.178 375.545 259.181 375.024 257.945C373.889 253.969 372.823 251.049 371.826 249.186C370.78 247.288 369.858 246.233 369.058 246.022C368.246 245.73 367.534 246.121 366.922 247.194C366.297 248.187 365.845 249.626 365.564 251.512C365.236 253.364 365.056 255.502 365.024 257.925C365.029 260.302 365.224 262.672 365.611 265.035C365.998 267.398 366.582 269.65 367.364 271.791C368.134 273.852 369.15 275.549 370.412 276.882C370.338 277.549 370.271 278.112 370.21 278.572C370.101 278.998 369.885 279.419 369.561 279.835C369.021 280.528 368.459 280.774 367.874 280.572C367.289 280.371 366.734 280.082 366.21 279.708C365.018 278.856 364.072 277.641 363.372 276.062C362.661 274.403 362.116 272.719 361.739 271.011C361.351 269.223 361.045 267.566 360.823 266.04C360.553 264.48 360.276 263.311 359.992 262.533C358.937 259.98 357.738 257.326 356.397 254.569C355.008 251.778 353.595 248.971 352.158 246.146C350.674 243.287 349.255 240.439 347.902 237.602C346.538 234.685 345.328 231.807 344.274 228.967C344.072 228.464 343.954 228.092 343.919 227.851C343.92 227.564 344.046 227.258 344.298 226.934C344.586 226.565 344.873 226.338 345.16 226.255C345.447 226.173 345.854 226.175 346.379 226.262C346.57 226.399 346.844 226.666 347.201 227.065C347.594 227.418 348.017 227.828 348.469 228.295C348.91 228.682 349.291 229.098 349.612 229.543C349.969 229.942 350.202 230.216 350.309 230.364C350.665 231.05 351.306 232.228 352.233 233.897C353.16 235.566 354.127 237.372 355.137 239.316C356.182 241.214 357.222 243.072 358.255 244.889C359.241 246.672 359.99 247.998 360.501 248.867C360.564 247.833 360.692 246.953 360.885 246.228C361.031 245.469 361.254 244.801 361.555 244.224C361.844 243.567 362.204 242.961 362.636 242.406C363.056 241.771 363.536 241.107 364.076 240.413C365.8 239.055 367.29 238.428 368.544 238.532C369.834 238.59 370.961 239.144 371.926 240.192C372.878 241.16 373.752 242.468 374.548 244.115C375.343 245.762 376.126 247.473 376.897 249.247C377.656 250.94 378.446 252.547 379.265 254.068C380.037 255.554 380.965 256.649 382.05 257.352C382.48 257.658 382.861 257.787 383.196 257.739C383.531 257.69 383.854 257.561 384.165 257.352C384.476 257.142 384.758 256.876 385.01 256.552C385.262 256.228 385.496 255.928 385.712 255.65C386.467 254.679 387.044 253.652 387.442 252.569C387.828 251.406 388.172 250.249 388.474 249.098C388.776 247.947 389.126 246.83 389.524 245.747C389.91 244.584 390.481 243.517 391.236 242.546C392.142 243.193 392.659 244.245 392.786 245.703C392.912 247.16 392.8 248.734 392.448 250.426C392.085 252.037 391.572 253.649 390.91 255.262C390.2 256.842 389.503 258.071 388.819 258.949Z" fill="#000234"/>
</svg>
